<svg width="24" height="24" viewBox="0 0 24 24" fill="none" xmlns="http://www.w3.org/2000/svg">
<path fill-rule="evenodd" clip-rule="evenodd" d="M12.0001 2.16309C15.2041 2.16309 15.5841 2.17509 16.8501 2.23309C20.1021 2.38109 21.6211 3.92409 21.7691 7.15209C21.8271 8.41709 21.8381 8.79709 21.8381 12.0021C21.8381 15.2071 21.8271 15.5871 21.7691 16.8521C21.6201 20.0771 20.1051 21.6231 16.8501 21.7711C15.5841 21.8291 15.2061 21.8411 12.0001 21.8411C8.79411 21.8411 8.41511 21.8291 7.15011 21.7711C3.89811 21.6231 2.37911 20.0801 2.23111 16.8521C2.17311 15.5871 2.16211 15.2071 2.16211 12.0021C2.16211 8.79709 2.17311 8.41709 2.23111 7.15209C2.38011 3.92709 3.89511 2.38109 7.15011 2.23309C8.41511 2.17509 8.79611 2.16309 12.0001 2.16309ZM12.0001 3.96309C10.4383 3.58888 8.80769 3.61191 7.25711 4.03009C4.80711 4.14209 3.67411 5.23009 3.56411 7.72309C3.50911 8.95309 3.49811 9.30609 3.49811 12.3961C3.49811 15.4861 3.50911 15.8391 3.56411 17.0691C3.67411 19.5621 4.80711 20.6521 7.25711 20.7621C8.47711 20.8181 8.83011 20.8291 12.0001 20.8291C15.1701 20.8291 15.5231 20.8181 16.7431 20.7621C19.1931 20.6501 20.3261 19.5621 20.4361 17.0691C20.4911 15.8391 20.5021 15.4861 20.5021 12.3961C20.5021 9.30609 20.4911 8.95309 20.4361 7.72309C20.3261 5.23009 19.1931 4.14009 16.7431 4.03009C15.1925 3.61191 13.5619 3.58888 12.0001 3.96309ZM12.0001 8.25009C11.0055 8.25009 10.0517 8.64517 9.34846 9.34844C8.6452 10.0517 8.25011 11.0055 8.25011 12.0001C8.25011 12.9946 8.6452 13.9485 9.34846 14.6517C10.0517 15.355 11.0055 15.7501 12.0001 15.7501C12.9947 15.7501 13.9485 15.355 14.6518 14.6517C15.355 13.9485 15.7501 12.9946 15.7501 12.0001C15.7501 11.0055 15.355 10.0517 14.6518 9.34844C13.9485 8.64517 12.9947 8.25009 12.0001 8.25009ZM12.0001 10.0501C12.5173 10.0501 13.0133 10.2555 13.379 10.6212C13.7447 10.9869 13.9501 11.4829 13.9501 12.0001C13.9501 12.5173 13.7447 13.0132 13.379 13.3789C13.0133 13.7446 12.5173 13.9501 12.0001 13.9501C11.4829 13.9501 10.9869 13.7446 10.6213 13.3789C10.2556 13.0132 10.0501 12.5173 10.0501 12.0001C10.0501 11.4829 10.2556 10.9869 10.6213 10.6212C10.9869 10.2555 11.4829 10.0501 12.0001 10.0501ZM16.8621 6.33009C16.5637 6.33009 16.2776 6.44861 16.0666 6.65959C15.8556 6.87057 15.7371 7.15672 15.7371 7.45509C15.7371 7.75345 15.8556 8.0396 16.0666 8.25058C16.2776 8.46156 16.5637 8.58009 16.8621 8.58009C17.1605 8.58009 17.4466 8.46156 17.6576 8.25058C17.8686 8.0396 17.9871 7.75345 17.9871 7.45509C17.9871 7.15672 17.8686 6.87057 17.6576 6.65959C17.4466 6.44861 17.1605 6.33009 16.8621 6.33009Z" fill="#6B7280"/>
</svg>
